<?xml version="1.0" encoding="utf-8"?>
<!-- Generator: Adobe Illustrator 26.3.1, SVG Export Plug-In . SVG Version: 6.00 Build 0)  -->
<svg version="1.1" xmlns="http://www.w3.org/2000/svg" xmlns:xlink="http://www.w3.org/1999/xlink" x="0px" y="0px"
	 viewBox="0 0 170 177.2" style="enable-background:new 0 0 170 177.2;" xml:space="preserve">
<style type="text/css">
	.st0{stroke:#E0E0E0;stroke-width:4.5;stroke-linecap:round;stroke-linejoin:round;stroke-miterlimit:10;}
	.st1{fill:#E0E0E0;stroke:#000000;stroke-width:4.5;stroke-linecap:round;stroke-linejoin:round;stroke-miterlimit:10;}
	.st2{fill:#787C7E;stroke:#000000;stroke-width:4.5;stroke-linecap:round;stroke-linejoin:round;stroke-miterlimit:10;}
	.st3{fill:#77A76A;stroke:#000000;stroke-width:4.5;stroke-linecap:round;stroke-linejoin:round;stroke-miterlimit:10;}
	.st4{fill:#E9C342;stroke:#000000;stroke-width:4.5;stroke-linecap:round;stroke-linejoin:round;stroke-miterlimit:10.0002;}
	.st5{fill:#FFFFFF;stroke:#000000;stroke-width:4.2491;stroke-linecap:round;stroke-linejoin:round;stroke-miterlimit:10;}
	.st6{fill:#E9C342;stroke:#000000;stroke-width:4.2491;stroke-linecap:round;stroke-linejoin:round;stroke-miterlimit:10;}
	.st7{fill:none;stroke:#000000;stroke-width:4.2491;stroke-linecap:round;stroke-linejoin:round;stroke-miterlimit:10;}
</style>
<g id="Layer_2">
</g>
<g id="Layer_1">
	<line class="st0" x1="77.5" y1="27.2" x2="57.5" y2="5.5"/>
	<line class="st0" x1="95.3" y1="28.1" x2="116.9" y2="7.6"/>
	<g>
		<g>
			<path class="st1" d="M58.8,125.4l1.4,19c0.1,0.7-0.2,1.5-0.7,2l-7,7.7c-1.6,1.7-0.3,4.5,2,4.5h22.7c1.5,0,2.7-1.2,2.7-2.7v-30
				c0-1.4-1.1-2.6-2.6-2.7l-15.8-0.6C59.9,122.5,58.6,123.8,58.8,125.4z"/>
			<path class="st1" d="M90,155.9v-30c0-1.4,1.1-2.6,2.6-2.7l15.8-0.6c1.6-0.1,2.9,1.2,2.8,2.8l-1.4,17.7c-0.1,0.7,0.2,1.5,0.7,2"/>
		</g>
		<circle class="st1" cx="86" cy="40.6" r="24.8"/>
		<g>
			<path class="st0" d="M57.5,5.5"/>
			<path class="st0" d="M77.5,27.2"/>
			<path class="st0" d="M116.9,7.6"/>
			<path class="st0" d="M95.3,28.1"/>
		</g>
		<g>
			<g>
				<path class="st1" d="M114.6,135.9l-63.8-2.2c-12.9-0.5-23-11.3-22.6-24.2l1.9-55c0.5-13,11.3-23,24.2-22.6l63.8,2.2
					c12.9,0.5,23,11.3,22.6,24.2l-1.9,55C138.4,126.2,127.5,136.3,114.6,135.9z"/>
			</g>
		</g>
		<g>
			<circle class="st2" cx="112.3" cy="100.9" r="8.2"/>
			<circle class="st2" cx="84" cy="99.9" r="8.2"/>
			<circle class="st2" cx="55.6" cy="98.9" r="8.2"/>
		</g>
		<g>
			<g>
				<path class="st3" d="M71,78.6l-22.6-0.8c-2.6-0.1-4.5-2.3-4.4-4.8l0.6-18c0.1-2.6,2.3-4.5,4.8-4.4L72,51.4L71,78.6z"/>
				
					<rect x="71.6" y="51.9" transform="matrix(3.489886e-02 -0.9994 0.9994 3.489886e-02 16.7541 148.3689)" class="st4" width="27.2" height="27.3"/>
				<path class="st2" d="M121,80.4l-22.7-0.8l0.9-27.2l22.6,0.8c2.6,0.1,4.5,2.3,4.4,4.8l-0.6,18C125.6,78.5,123.5,80.4,121,80.4z"
					/>
			</g>
		</g>
		<g>
			<g>
				<g>
					<rect x="45" y="164.5" class="st5" width="36.8" height="6.3"/>
					<path class="st6" d="M45,161.7c0-1.6,0.7-3,1.9-4.1l8.2-7.3c0.7-0.6,1-1.5,0.9-2.3l-0.5-6.1h26.3v22.7H45V161.7z"/>
					<line class="st7" x1="62.7" y1="150.5" x2="72.2" y2="150.5"/>
					<line class="st7" x1="58.4" y1="156.5" x2="72.2" y2="156.5"/>
				</g>
				<g>
					<rect x="88.1" y="164.7" class="st5" width="36.8" height="6.3"/>
					<path class="st6" d="M124.9,161.9c0-1.6-0.7-3-1.9-4.1l-8.2-7.3c-0.7-0.6-1-1.5-0.9-2.3l0.5-6.1H88.1v22.7h36.8
						C124.9,164.8,124.9,161.9,124.9,161.9z"/>
					<line class="st7" x1="107.2" y1="150.7" x2="97.7" y2="150.7"/>
					<line class="st7" x1="111.5" y1="156.6" x2="97.7" y2="156.6"/>
				</g>
			</g>
		</g>
	</g>
</g>
</svg>
