<svg width="36" height="36" viewBox="0 0 36 36" fill="none" xmlns="http://www.w3.org/2000/svg">
<rect width="32" height="32" rx="4" fill="#6AAA64"/>
<path d="M20 14V6H12V12H6V24H26V14H20ZM14 8H18V22H14V8ZM8 14H12V22H8V14ZM24 22H20V16H24V22Z" fill="white"/>
<path d="M34.3838 28.3204L34.6513 28L34.3838 27.6796L33.1853 26.2438L33.3526 24.341L33.3905 23.9107L32.9703 23.8107L31.2137 23.3927L30.2901 21.7544L30.0658 21.3567L29.6494 21.544L28 22.286L26.3506 21.544L25.9347 21.3569L25.7102 21.7539L24.7871 23.3862L23.031 23.799L22.6095 23.8981L22.6474 24.3294L22.8148 26.2386L21.6156 27.6803L21.3492 28.0006L21.6162 28.3204L22.8148 29.7562L22.6474 31.6649L22.6096 32.095L23.0297 32.195L24.7867 32.6131L25.7102 34.2461L25.9353 34.6441L26.3518 34.4555L28.0007 33.7086L29.6494 34.4503L30.0653 34.6374L30.2898 34.2404L31.2133 32.6074L32.9703 32.1893L33.3905 32.0893L33.3526 31.659L33.1853 29.7562L34.3838 28.3204ZM25.6919 28.3992L26.5958 29.3502L26.958 29.7313L27.3204 29.3503L30.1497 26.3762L30.2656 26.4976L26.9582 29.972L25.5762 28.5205L25.6919 28.3992Z" fill="black" stroke="white"/>
</svg>
